<svg width="28" height="28" viewBox="0 0 28 28" fill="none" xmlns="http://www.w3.org/2000/svg">
<path d="M7.5 15.0597C7.5 14.1063 8.27293 13.3333 9.2264 13.3333C10.0223 13.3333 10.7413 12.8577 11.0526 12.1252L12.9337 7.69909C12.985 7.57838 13.1034 7.5 13.2346 7.5C13.9252 7.5 14.4611 8.10244 14.3808 8.78831L14.1994 10.3357C14.0852 11.3105 14.8469 12.1667 15.8283 12.1667H16.4395C18.1004 12.1667 19.2996 13.7564 18.8433 15.3535L18.2242 17.5201C17.9176 18.5934 16.9366 19.3333 15.8204 19.3333H10C8.61929 19.3333 7.5 18.214 7.5 16.8333V15.0597ZM9.2264 12.3333C7.72065 12.3333 6.5 13.554 6.5 15.0597V16.8333C6.5 18.7663 8.067 20.3333 10 20.3333H15.8204C17.3831 20.3333 18.7565 19.2974 19.1858 17.7949L19.8048 15.6282C20.4436 13.3923 18.7648 11.1667 16.4395 11.1667H15.8283C15.4453 11.1667 15.148 10.8325 15.1926 10.4521L15.374 8.9047C15.524 7.62448 14.5236 6.5 13.2346 6.5C12.7023 6.5 12.2215 6.81807 12.0133 7.30795L10.1322 11.7341C9.97782 12.0974 9.62121 12.3333 9.2264 12.3333ZM26.9167 13.7083C26.9167 21.0031 21.0031 26.9167 13.7083 26.9167C6.41357 26.9167 0.5 21.0031 0.5 13.7083C0.5 6.41357 6.41357 0.5 13.7083 0.5C21.0031 0.5 26.9167 6.41357 26.9167 13.7083Z" stroke="white"/>
</svg>
